<svg
  xmlns="http://www.w3.org/2000/svg"
  viewBox="0 0 512 512"
  role="img"
  aria-labelledby="title desc"
>
  <title id="title">Ouwibo hamster developer mascot</title>
  <desc id="desc">
    A cute hamster developer mascot wearing a dark beanie and holding a laptop.
  </desc>
  <defs>
    <linearGradient
      id="sky"
      x1="72"
      y1="38"
      x2="438"
      y2="478"
      gradientUnits="userSpaceOnUse"
    >
      <stop stop-color="#F8FCFF" />
      <stop offset="0.55" stop-color="#BAE6FD" />
      <stop offset="1" stop-color="#38BDF8" />
    </linearGradient>
    <radialGradient
      id="halo"
      cx="0"
      cy="0"
      r="1"
      gradientUnits="userSpaceOnUse"
      gradientTransform="translate(170 96) rotate(45) scale(310)"
    >
      <stop stop-color="#FFFFFF" stop-opacity="0.95" />
      <stop offset="0.6" stop-color="#E0F2FE" stop-opacity="0.45" />
      <stop offset="1" stop-color="#E0F2FE" stop-opacity="0" />
    </radialGradient>
    <linearGradient
      id="fur"
      x1="148"
      y1="132"
      x2="346"
      y2="410"
      gradientUnits="userSpaceOnUse"
    >
      <stop stop-color="#F8FAFC" />
      <stop offset="0.48" stop-color="#E5EDF4" />
      <stop offset="1" stop-color="#94A3B8" />
    </linearGradient>
    <linearGradient
      id="belly"
      x1="190"
      y1="270"
      x2="312"
      y2="430"
      gradientUnits="userSpaceOnUse"
    >
      <stop stop-color="#FFFFFF" />
      <stop offset="1" stop-color="#E2E8F0" />
    </linearGradient>
    <linearGradient
      id="beanie"
      x1="144"
      y1="70"
      x2="374"
      y2="214"
      gradientUnits="userSpaceOnUse"
    >
      <stop stop-color="#475569" />
      <stop offset="0.56" stop-color="#1E293B" />
      <stop offset="1" stop-color="#0F172A" />
    </linearGradient>
    <linearGradient
      id="jacket"
      x1="92"
      y1="242"
      x2="390"
      y2="442"
      gradientUnits="userSpaceOnUse"
    >
      <stop stop-color="#A98D64" />
      <stop offset="0.52" stop-color="#8A6A43" />
      <stop offset="1" stop-color="#5F472C" />
    </linearGradient>
    <linearGradient
      id="laptop"
      x1="292"
      y1="254"
      x2="450"
      y2="380"
      gradientUnits="userSpaceOnUse"
    >
      <stop stop-color="#E2E8F0" />
      <stop offset="1" stop-color="#64748B" />
    </linearGradient>
    <radialGradient
      id="eye"
      cx="0"
      cy="0"
      r="1"
      gradientUnits="userSpaceOnUse"
      gradientTransform="translate(203 214) rotate(80) scale(42)"
    >
      <stop stop-color="#78323E" />
      <stop offset="1" stop-color="#1E1019" />
    </radialGradient>
    <filter
      id="softShadow"
      x="36"
      y="44"
      width="444"
      height="440"
      color-interpolation-filters="sRGB"
      filterUnits="userSpaceOnUse"
    >
      <feDropShadow
        dx="0"
        dy="22"
        stdDeviation="20"
        flood-color="#0F172A"
        flood-opacity="0.22"
      />
    </filter>
    <clipPath id="round"><rect width="512" height="512" rx="108" /></clipPath>
  </defs>

  <g clip-path="url(#round)">
    <rect width="512" height="512" rx="108" fill="url(#sky)" />
    <rect width="512" height="512" fill="url(#halo)" />
    <path
      d="M42 352C112 302 182 306 252 334C322 362 394 330 474 266V512H42Z"
      fill="#FFFFFF"
      fill-opacity="0.45"
    />
    <circle cx="94" cy="102" r="54" fill="#FFFFFF" fill-opacity="0.34" />
    <circle cx="410" cy="132" r="74" fill="#FFFFFF" fill-opacity="0.24" />

    <g filter="url(#softShadow)">
      <ellipse
        cx="252"
        cy="435"
        rx="136"
        ry="26"
        fill="#0F172A"
        fill-opacity="0.18"
      />

      <path
        d="M118 284C92 316 84 358 98 406C116 386 136 377 164 379L171 272Z"
        fill="url(#jacket)"
        stroke="#172033"
        stroke-width="9"
        stroke-linejoin="round"
      />
      <path
        d="M348 276C384 286 410 324 415 378C386 368 362 371 338 386Z"
        fill="url(#jacket)"
        stroke="#172033"
        stroke-width="9"
        stroke-linejoin="round"
      />

      <path
        d="M142 324C150 237 185 170 253 170C323 170 358 238 365 324C372 398 322 443 253 443C184 443 136 398 142 324Z"
        fill="url(#fur)"
        stroke="#172033"
        stroke-width="10"
      />
      <path
        d="M185 332C196 295 223 276 254 276C285 276 312 296 322 332C334 389 296 423 254 423C212 423 174 389 185 332Z"
        fill="url(#belly)"
        opacity="0.92"
      />

      <path
        d="M120 248C94 234 84 204 98 179C113 153 147 148 174 170"
        fill="#CBD5E1"
        stroke="#172033"
        stroke-width="9"
        stroke-linejoin="round"
      />
      <path
        d="M383 248C411 235 421 204 406 178C391 152 356 148 329 170"
        fill="#CBD5E1"
        stroke="#172033"
        stroke-width="9"
        stroke-linejoin="round"
      />

      <path
        d="M118 213C128 152 175 112 252 112C330 112 377 152 387 213C348 197 304 190 252 190C199 190 157 197 118 213Z"
        fill="url(#beanie)"
        stroke="#172033"
        stroke-width="10"
        stroke-linejoin="round"
      />
      <path
        d="M142 139C176 83 298 58 340 121C294 104 202 113 142 139Z"
        fill="#334155"
        stroke="#172033"
        stroke-width="9"
        stroke-linejoin="round"
      />
      <path
        d="M122 213C168 187 310 179 385 212L375 256C320 241 189 241 133 257Z"
        fill="#263244"
        stroke="#172033"
        stroke-width="9"
        stroke-linejoin="round"
      />
      <path
        d="M188 202L195 247M243 193L246 241M302 196L295 244M352 210L337 249"
        stroke="#111827"
        stroke-opacity="0.72"
        stroke-width="6"
        stroke-linecap="round"
      />
      <rect
        x="221"
        y="181"
        width="70"
        height="50"
        rx="10"
        fill="#1E293B"
        stroke="#0F172A"
        stroke-width="6"
      />
      <path
        d="M247 195L230 206L247 217M266 195L283 206L266 217M260 193L254 220"
        fill="none"
        stroke="#7DD3FC"
        stroke-width="7"
        stroke-linecap="round"
        stroke-linejoin="round"
      />

      <path
        d="M151 252C170 282 201 298 253 298C305 298 337 282 356 252C347 321 308 358 253 358C198 358 160 321 151 252Z"
        fill="#F8FAFC"
        opacity="0.88"
      />
      <path
        d="M170 245C150 236 143 216 150 197M333 245C354 236 361 216 354 197"
        stroke="#64748B"
        stroke-opacity="0.46"
        stroke-width="9"
        stroke-linecap="round"
      />

      <circle
        cx="203"
        cy="244"
        r="30"
        fill="url(#eye)"
        stroke="#3B1D25"
        stroke-width="6"
      />
      <circle
        cx="306"
        cy="244"
        r="30"
        fill="url(#eye)"
        stroke="#3B1D25"
        stroke-width="6"
      />
      <circle cx="194" cy="233" r="10" fill="#FFFFFF" />
      <circle cx="299" cy="233" r="10" fill="#FFFFFF" />
      <circle cx="212" cy="257" r="5" fill="#FFFFFF" fill-opacity="0.75" />
      <circle cx="316" cy="257" r="5" fill="#FFFFFF" fill-opacity="0.75" />

      <path
        d="M249 276C257 268 270 268 278 276C275 288 252 288 249 276Z"
        fill="#F5A3A6"
        stroke="#9F3A4C"
        stroke-width="5"
      />
      <path
        d="M242 296C251 311 268 311 276 296M276 296C287 314 309 314 318 298"
        fill="none"
        stroke="#3B1D25"
        stroke-width="7"
        stroke-linecap="round"
      />
      <path
        d="M272 311C280 331 305 325 312 307C301 314 286 315 272 311Z"
        fill="#FCA5A5"
        stroke="#3B1D25"
        stroke-width="5"
        stroke-linejoin="round"
      />
      <path d="M266 311C268 325 282 325 284 311Z" fill="#FFFFFF" />

      <path
        d="M154 316C144 348 145 380 166 405C180 384 187 356 184 325Z"
        fill="url(#jacket)"
        stroke="#172033"
        stroke-width="9"
        stroke-linejoin="round"
      />
      <path
        d="M112 304L134 295M126 364L152 352M144 278L164 294M176 397L194 374"
        stroke="#3F2E1D"
        stroke-width="5"
        stroke-linecap="round"
      />
      <rect
        x="118"
        y="318"
        width="34"
        height="38"
        rx="4"
        fill="#9DB2B4"
        fill-opacity="0.7"
        stroke="#3F2E1D"
        stroke-width="5"
        transform="rotate(-10 118 318)"
      />
      <path
        d="M120 330L153 324M126 341L155 337M139 319L144 356"
        stroke="#3F2E1D"
        stroke-opacity="0.55"
        stroke-width="3"
      />

      <path
        d="M332 304C347 314 357 332 361 354L316 359C307 336 310 316 332 304Z"
        fill="#F5A3A6"
        stroke="#172033"
        stroke-width="8"
      />
      <path
        d="M292 356C313 378 359 386 429 380L408 410C340 412 296 400 272 376Z"
        fill="#F5A3A6"
        stroke="#172033"
        stroke-width="8"
        stroke-linejoin="round"
      />

      <path
        d="M276 267L438 246C455 244 467 257 463 274L434 395L252 404Z"
        fill="url(#laptop)"
        stroke="#172033"
        stroke-width="9"
        stroke-linejoin="round"
      />
      <path
        d="M252 404H438L403 432H214C201 432 195 419 206 412Z"
        fill="#334155"
        stroke="#172033"
        stroke-width="8"
        stroke-linejoin="round"
      />
      <path
        d="M302 284L421 268L403 363L285 371Z"
        fill="#CBD5E1"
        opacity="0.55"
      />
      <path
        d="M353 310C363 298 382 303 386 318C390 334 372 347 356 337C346 330 346 318 353 310Z"
        fill="#FFFFFF"
        opacity="0.9"
      />
      <path
        d="M335 411H379"
        stroke="#94A3B8"
        stroke-width="5"
        stroke-linecap="round"
      />

      <path
        d="M209 344L253 288L296 344L254 366Z"
        fill="#627EEA"
        opacity="0.18"
      />
      <path
        d="M254 288L209 344L254 326L296 344Z"
        fill="#E2E8F0"
        stroke="#64748B"
        stroke-width="3"
        stroke-linejoin="round"
      />
      <path
        d="M209 352L254 378L296 352L254 366Z"
        fill="#94A3B8"
        stroke="#64748B"
        stroke-width="3"
        stroke-linejoin="round"
      />

      <ellipse
        cx="180"
        cy="438"
        rx="24"
        ry="13"
        fill="#F5A3A6"
        stroke="#172033"
        stroke-width="7"
      />
      <ellipse
        cx="319"
        cy="438"
        rx="24"
        ry="13"
        fill="#F5A3A6"
        stroke="#172033"
        stroke-width="7"
      />
      <path
        d="M101 382C77 376 71 398 94 407"
        fill="none"
        stroke="#172033"
        stroke-width="9"
        stroke-linecap="round"
      />
    </g>
  </g>
</svg>
