<svg
  xmlns="http://www.w3.org/2000/svg"
  viewBox="0 0 512 512"
  role="img"
  aria-labelledby="title desc"
>
  <title id="title">Ouwibo orange claw mascot</title>
  <desc id="desc">
    A bright orange crab claw mascot on a warm OpenClaw-inspired badge.
  </desc>
  <defs>
    <linearGradient
      id="bg"
      x1="62"
      y1="50"
      x2="448"
      y2="466"
      gradientUnits="userSpaceOnUse"
    >
      <stop stop-color="#FFF3D8" />
      <stop offset="0.45" stop-color="#FFB14A" />
      <stop offset="1" stop-color="#FF5A1F" />
    </linearGradient>
    <radialGradient
      id="sun"
      cx="0"
      cy="0"
      r="1"
      gradientUnits="userSpaceOnUse"
      gradientTransform="translate(142 102) rotate(45) scale(230)"
    >
      <stop stop-color="#FFFFFF" stop-opacity="0.9" />
      <stop offset="0.5" stop-color="#FFE7A6" stop-opacity="0.45" />
      <stop offset="1" stop-color="#FFE7A6" stop-opacity="0" />
    </radialGradient>
    <radialGradient
      id="ember"
      cx="0"
      cy="0"
      r="1"
      gradientUnits="userSpaceOnUse"
      gradientTransform="translate(382 392) rotate(132) scale(260)"
    >
      <stop stop-color="#7C2D12" stop-opacity="0.44" />
      <stop offset="1" stop-color="#7C2D12" stop-opacity="0" />
    </radialGradient>
    <linearGradient
      id="shell"
      x1="152"
      y1="142"
      x2="352"
      y2="388"
      gradientUnits="userSpaceOnUse"
    >
      <stop stop-color="#FFF7D6" />
      <stop offset="0.48" stop-color="#FF8A2A" />
      <stop offset="1" stop-color="#EA3D16" />
    </linearGradient>
    <linearGradient
      id="claw"
      x1="92"
      y1="118"
      x2="428"
      y2="330"
      gradientUnits="userSpaceOnUse"
    >
      <stop stop-color="#FFF1B8" />
      <stop offset="0.35" stop-color="#FF9E2C" />
      <stop offset="1" stop-color="#F04A1A" />
    </linearGradient>
    <filter
      id="shadow"
      x="48"
      y="54"
      width="416"
      height="420"
      color-interpolation-filters="sRGB"
      filterUnits="userSpaceOnUse"
    >
      <feDropShadow
        dx="0"
        dy="24"
        stdDeviation="22"
        flood-color="#431407"
        flood-opacity="0.32"
      />
    </filter>
    <clipPath id="round"><rect width="512" height="512" rx="108" /></clipPath>
  </defs>
  <g clip-path="url(#round)">
    <rect width="512" height="512" rx="108" fill="url(#bg)" />
    <rect width="512" height="512" fill="url(#sun)" />
    <rect width="512" height="512" fill="url(#ember)" />
    <path
      d="M78 150H434M58 256H454M92 362H420M150 70V442M256 54V458M362 82V430"
      stroke="#431407"
      stroke-opacity="0.08"
      stroke-width="3"
    />
    <path
      d="M70 394C136 338 202 332 258 352C317 373 380 350 448 302V512H70V394Z"
      fill="#431407"
      fill-opacity="0.14"
    />
    <g filter="url(#shadow)">
      <circle
        cx="256"
        cy="264"
        r="162"
        fill="#FFF8E7"
        fill-opacity="0.42"
        stroke="#7C2D12"
        stroke-opacity="0.28"
        stroke-width="14"
      />
      <path
        d="M184 224C130 220 102 192 102 154C102 118 130 96 164 104C198 112 211 144 202 174C193 202 184 224 184 224Z"
        fill="url(#claw)"
        stroke="#431407"
        stroke-width="10"
        stroke-linejoin="round"
      />
      <path
        d="M328 224C382 220 410 192 410 154C410 118 382 96 348 104C314 112 301 144 310 174C319 202 328 224 328 224Z"
        fill="url(#claw)"
        stroke="#431407"
        stroke-width="10"
        stroke-linejoin="round"
      />
      <path
        d="M154 206C128 174 126 140 152 121M358 121C386 142 384 176 358 206"
        stroke="#FFF7D6"
        stroke-opacity="0.5"
        stroke-width="9"
        stroke-linecap="round"
      />
      <path
        d="M154 274C154 184 199 139 256 139C313 139 358 184 358 274C358 350 314 392 256 392C198 392 154 350 154 274Z"
        fill="url(#shell)"
        stroke="#431407"
        stroke-width="12"
      />
      <path
        d="M173 220C207 196 226 186 256 186C286 186 315 196 339 220"
        fill="none"
        stroke="#FFF7D6"
        stroke-opacity="0.6"
        stroke-width="9"
        stroke-linecap="round"
      />
      <path
        d="M196 322C221 344 291 344 316 322"
        fill="none"
        stroke="#431407"
        stroke-width="10"
        stroke-linecap="round"
      />
      <circle cx="216" cy="270" r="13" fill="#431407" />
      <circle cx="296" cy="270" r="13" fill="#431407" />
      <circle cx="211" cy="265" r="4" fill="#FFF8E7" />
      <circle cx="291" cy="265" r="4" fill="#FFF8E7" />
      <path
        d="M244 294C251 288 263 288 270 294C268 304 246 304 244 294Z"
        fill="#7C2D12"
      />
      <path
        d="M182 248H124M388 248H330"
        stroke="#431407"
        stroke-opacity="0.5"
        stroke-width="8"
        stroke-linecap="round"
      />
      <path
        d="M202 151C240 134 283 134 320 151"
        stroke="#FFF8E7"
        stroke-opacity="0.58"
        stroke-width="10"
        stroke-linecap="round"
      />
      <path
        d="M218 146C209 176 206 208 208 238M256 139C253 174 253 206 256 238M302 146C311 176 314 208 312 238"
        stroke="#7C2D12"
        stroke-opacity="0.42"
        stroke-width="6"
        stroke-linecap="round"
      />
    </g>
  </g>
</svg>
